<svg viewBox="0 0 14.96 16.34" xmlns="http://www.w3.org/2000/svg" xmlns:xlink="http://www.w3.org/1999/xlink" overflow="hidden"><defs></defs><g id="Layer_2"><g id="Icons"><path d="M14.63 3.64 11 3.64 8.62 1.64C8.68838 1.48935 8.72253 1.32542 8.72 1.16 8.72 0.502781 8.18722-0.03 7.53-0.03 6.87278-0.03 6.34 0.502781 6.34 1.16 6.34234 1.32492 6.37629 1.48786 6.44 1.64L4 3.64 0.33 3.64C0.147748 3.63925-0.000609 3.78638-0.001364 3.96863-0.001407 3.9791-0.000952 3.98957 0 4L0 16C0 16.1823 0.147746 16.33 0.33 16.33L14.63 16.33C14.8109 16.3521 14.9755 16.2234 14.9976 16.0424 14.9993 16.0284 15.0001 16.0142 15 16L15 4C15.018 3.81864 14.8856 3.65701 14.7043 3.63898 14.6795 3.63653 14.6546 3.63687 14.63 3.64ZM7.48 0.66C7.7688 0.66545 8.00005 0.90115 8 1.19 8.00552 1.48266 7.77275 1.72438 7.48009 1.72991 7.47673 1.72997 7.47336 1.73 7.47 1.73 7.17453 1.68951 6.96782 1.41716 7.00832 1.12169 7.04121 0.881643 7.22996 0.692895 7.47 0.66ZM6.81 2.18C7.21244 2.46111 7.74756 2.46111 8.15 2.18L9.92 3.64 5.05 3.64ZM14.3 15.68 0.66 15.68 0.66 6.68 14.3 6.68ZM14.3 6 0.66 6 0.66 4.3 14.3 4.3Z" fill="#666666"/><rect x="8.74" y="7.91" rx="0.33" width="0.84" height="0.83" fill="#666666"/><rect x="10.47" y="7.91" rx="0.33" width="0.84" height="0.83" fill="#666666"/><rect x="12.19" y="7.91" rx="0.33" width="0.84" height="0.83" fill="#666666"/><rect x="1.83" y="9.84" rx="0.33" width="0.84" height="0.83" fill="#666666"/><rect x="3.55" y="9.84" rx="0.33" width="0.84" height="0.83" fill="#666666"/><rect x="5.28" y="9.84" rx="0.33" width="0.83" height="0.83" fill="#666666"/><rect x="7.01" y="9.84" rx="0.33" width="0.84" height="0.83" fill="#666666"/><rect x="8.74" y="9.84" rx="0.33" width="0.84" height="0.83" fill="#666666"/><rect x="10.47" y="9.84" rx="0.33" width="0.84" height="0.83" fill="#666666"/><rect x="12.19" y="9.84" rx="0.33" width="0.84" height="0.83" fill="#666666"/><rect x="1.83" y="11.77" rx="0.33" width="0.84" height="0.83" fill="#666666"/><rect x="3.55" y="11.77" rx="0.33" width="0.84" height="0.83" fill="#666666"/><rect x="5.28" y="11.77" rx="0.33" width="0.83" height="0.83" fill="#666666"/><rect x="7.01" y="11.77" rx="0.33" width="0.84" height="0.83" fill="#666666"/><rect x="8.74" y="11.77" rx="0.33" width="0.84" height="0.83" fill="#666666"/><rect x="10.47" y="11.77" rx="0.33" width="0.84" height="0.83" fill="#666666"/><rect x="12.19" y="11.77" rx="0.33" width="0.84" height="0.83" fill="#666666"/><rect x="1.83" y="13.7" rx="0.33" width="0.84" height="0.83" fill="#666666"/><rect x="3.55" y="13.7" rx="0.33" width="0.84" height="0.83" fill="#666666"/><rect x="5.28" y="13.7" rx="0.33" width="0.83" height="0.83" fill="#666666"/><rect x="7.01" y="13.7" rx="0.33" width="0.84" height="0.83" fill="#666666"/><rect x="8.74" y="13.7" rx="0.33" width="0.84" height="0.83" fill="#666666"/></g></g></svg>